<?xml version="1.0" encoding="utf-8"?>
<!-- Generator: Adobe Illustrator 26.5.0, SVG Export Plug-In . SVG Version: 6.00 Build 0)  -->
<svg version="1.1" id="Logo_White" xmlns="http://www.w3.org/2000/svg" xmlns:xlink="http://www.w3.org/1999/xlink" x="0px" y="0px"
	 viewBox="0 0 855.88 302.54" style="enable-background:new 0 0 855.88 302.54;" xml:space="preserve">
<style type="text/css">
	.st0{fill:#FFFFFF;}
</style>
<g id="Avatar">
	<path class="st0" d="M18.95,192.65c8.33-44.56,29.38-48.48,57.79-86.19c28.41-37.71,9.79-98.93,10.77-63.67
		c0.98,35.26-24.49,56.32-33.79,63.18c-9.3,6.86-21.55,35.26-29.38,52.4c-7.84,17.14-24.98,25.96-23.02,42.12
		c1.96,16.16,22.04,13.22,24.49,4.41C28.26,196.08,18.95,192.65,18.95,192.65z"/>
	<path class="st0" d="M86.05,102.54c0,0,46.04-46.04,38.69-101.86c0,0-8.81,48.97-30.36,68.56C94.37,69.24,96.82,84.91,86.05,102.54
		z"/>
	<path class="st0" d="M78.7,112.33c-18.61,15.18-41.14,45.06-41.14,45.06c3.43-2.94,12.24-5.88,25.47-14.2
		C76.25,134.86,78.7,112.33,78.7,112.33z"/>
	<path class="st0" d="M23.36,187.75c9.79-19.1,18.04-15.91,40.16-27.42c30.31-15.78,18.12-48.97,18.12-48.97
		c0.98,17.14-6.37,34.77-30.85,44.57C26.3,165.72,23.36,187.75,23.36,187.75z"/>
	<path class="st0" d="M87,114.31c0,0,7.06,30.94-13.57,45.05c-18.83,12.88-49.67,16.28-45.6,36.1c0,0,7.06-11.13,30.94-16.28
		C82.65,174.02,109.25,158,87,114.31z"/>
	<path class="st0" d="M74.78,181.39c26.94-6.37,40.16-33.3,36.24-62.69c-3.92-29.38,2.45-43.59,2.45-43.59
		c-17.14,19.59-22.53,27.92-22.04,34.77c0.49,6.86,8.33,7.84,9.3,32.81C101.72,167.67,74.78,181.39,74.78,181.39z"/>
	<path class="st0" d="M85.07,233.3c93.05-65.62,30.36-142.02,30.36-142.02c-3.43,7.35,0.49,28.89,0.49,28.89
		c5.39,44.57-27.42,61.71-27.42,61.71C105.64,207.34,85.07,233.3,85.07,233.3z"/>
	<path class="st0" d="M75.76,238.2c27.42-31.83,4.9-54.36,4.9-54.36c2.94,13.71,8.33,20.57-22.53,54.36
		c-30.85,33.79-0.98,63.67-0.98,63.67C47.85,280.8,48.34,270.03,75.76,238.2z"/>
	<path class="st0" d="M99.27,240.65c19.73-12.46,46.28-24.98,65.38-49.95c19.1-24.98,13.22-80.81,48.48-124.88
		c35.26-44.08,103.58-55.1,103.58-55.1c-105.78,2.2-178.51,75.66-178.51,75.66c30.85,23.51,37.96,99.42-27.67,137.12
		c-67.04,38.52-51.42,73.46-51.42,73.46C60.83,271.74,80.66,252.4,99.27,240.65z"/>
	<path class="st0" d="M188.89,136.33c0,0,7.35-20.57,28.65-33.06c24.09-14.12,40.98-32.41,52.16-51.42
		c10.1-17.18,27.18-33.79,27.18-33.79C196.97,48.18,188.89,136.33,188.89,136.33z"/>
	<path class="st0" d="M222.2,110.38c-34.28,17.14-47.99,73.95-47.99,73.95c80.32-43.59,85.7-110.68,85.7-110.68
		S256.48,93.24,222.2,110.38z"/>
	<path class="st0" d="M173.22,191.18c-4.41,5.88-11.26,20.08-49.95,39.18c-38.69,19.1-50.93,44.08-50.93,44.08
		c24.49-24.98,48.24-32.32,107.74-58.77s69.05-92.56,69.05-92.56C215.34,178.45,173.22,191.18,173.22,191.18z"/>
	<path class="st0" d="M44.03,256.62c0,0-5.6,1.63-6.87,6.46c-1.27,4.84,2.54,9.98,2.54,9.98s1.59,0.71,2.16-8.22
		C42.32,257.91,44.03,256.62,44.03,256.62z"/>
</g>
<g id="VIBRIA">
	<path class="st0" d="M411.21,88.32c-1.42,0.29-2.76,0.64-4.04,1.06s-2.48,1.21-3.62,2.34c-0.57,0.71-1.91,3.33-4.04,7.87
		c-2.13,4.54-4.65,10.21-7.55,17.01c-2.91,6.81-6.1,14.25-9.57,22.33c-3.48,8.08-6.84,16.02-10.1,23.82
		c-1.99,4.68-3.9,9.18-5.74,13.51c-1.84,4.33-3.55,8.29-5.1,11.91c-1.56,3.62-2.94,6.81-4.15,9.57c-1.21,2.76-2.16,4.86-2.87,6.27
		c-0.14,0.29-0.36,0.43-0.64,0.43c-0.29,0-0.57-0.14-0.85-0.43c-5.25-8.93-9.71-18.04-13.4-27.33c-3.69-9.28-7.16-18.68-10.42-28.18
		c-3.4-9.78-6.88-19.28-10.42-28.5c-3.55-9.21-7.73-17.72-12.55-25.52c-1.14-1.98-2.34-3.26-3.62-3.83
		c-1.28-0.56-2.69-1.06-4.25-1.49c-0.85-0.28-1.84-0.56-2.98-0.85c-1.14-0.28-2.27-0.78-3.4-1.49c-0.42-0.28-0.57-0.6-0.42-0.96
		c0.14-0.35,0.42-0.53,0.85-0.53c2.41,0.14,4.71,0.25,6.91,0.32c2.2,0.07,4.43,0.18,6.7,0.32c4.25,0.29,8.54,0.5,12.87,0.64
		c4.32,0.14,8.68,0.14,13.08,0c0.43,0,0.64,0.29,0.64,0.85c0,0.57-0.21,0.85-0.64,0.85c-0.42,0-1.06,0.11-1.91,0.32
		c-0.85,0.21-1.7,0.5-2.55,0.85c-0.85,0.36-1.59,0.74-2.23,1.17c-0.64,0.43-0.96,0.92-0.96,1.49c0,1.99,0.81,5.5,2.45,10.53
		c1.63,5.03,3.65,10.85,6.06,17.44c2.41,6.59,5.03,13.47,7.87,20.63c2.83,7.16,5.53,13.86,8.08,20.1c1.98,4.54,3.58,8.29,4.79,11.27
		c1.2,2.98,2.16,5.53,2.87,7.66c1.7-3.97,3.83-8.86,6.38-14.67c2.69-6.09,5.56-12.69,8.61-19.78c3.05-7.09,5.92-14,8.61-20.74
		c2.69-6.73,4.92-13.01,6.7-18.82c1.77-5.81,2.66-10.42,2.66-13.82c0-0.56-0.36-1.1-1.06-1.59c-0.71-0.5-1.56-0.92-2.55-1.28
		c-0.99-0.35-1.99-0.64-2.98-0.85c-0.99-0.21-1.7-0.39-2.13-0.53c-0.29-0.14-0.36-0.5-0.21-1.06c0.14-0.56,0.35-0.78,0.64-0.64
		c0.71,0.14,1.42,0.21,2.13,0.21c0.71,0,1.42,0.07,2.13,0.21h-0.21c3.97,0.43,8.01,0.64,12.12,0.64c4.39,0,8.72-0.21,12.97-0.64
		h-0.21c0.71-0.14,1.38-0.25,2.02-0.32c0.64-0.07,1.31-0.11,2.02-0.11l0.21,1.7C412.77,87.97,411.78,88.18,411.21,88.32z"/>
	<path class="st0" d="M455.77,201.99c-2.62-0.07-5.28-0.11-7.97-0.11c-3.83,0-7.59,0.04-11.27,0.11c-3.69,0.07-7.44,0.18-11.27,0.32
		c-0.42,0-0.67-0.25-0.74-0.74c-0.07-0.5,0.11-0.81,0.53-0.96c3.54-1.28,6.13-3.22,7.76-5.85c1.63-2.62,2.45-5.78,2.45-9.46V97.04
		c0-3.26-1.1-5.53-3.3-6.81c-2.2-1.28-4.79-2.13-7.76-2.55c-0.42-0.14-0.6-0.46-0.53-0.96c0.07-0.5,0.32-0.74,0.74-0.74
		c2.98,0.29,5.96,0.5,8.93,0.64c2.98,0.14,6.02,0.21,9.14,0.21c2.98,0,5.96-0.07,8.93-0.21c2.98-0.14,5.88-0.43,8.72-0.85
		c0.42-0.14,0.71,0.07,0.85,0.64c0.14,0.57,0,0.92-0.43,1.06c-3.12,0.71-5.64,1.56-7.55,2.55c-1.91,0.99-2.87,3.33-2.87,7.02v87.62
		c0,5.39,1.03,9.25,3.08,11.59c2.05,2.34,5.64,3.72,10.74,4.15v1.7C461.12,202.1,458.39,202.06,455.77,201.99z"/>
	<path class="st0" d="M550.41,182.32c-2.06,4.25-4.79,7.87-8.19,10.85c-3.4,2.98-7.34,5.28-11.8,6.91
		c-4.47,1.63-9.18,2.45-14.14,2.45c-3.4,0-6.81,0-10.21,0c-3.26,0-6.59-0.07-10-0.21c-3.4-0.14-6.81-0.21-10.21-0.21
		c-3.26,0-6.59,0-10,0c-0.42,0-0.67-0.25-0.74-0.74c-0.07-0.5,0.11-0.81,0.53-0.96c2.41-0.85,4.32-1.63,5.74-2.34
		c1.42-0.71,2.45-1.6,3.08-2.66c0.64-1.06,1.03-2.41,1.17-4.04c0.14-1.63,0.21-3.65,0.21-6.06V96.61c0-1.84-0.18-3.26-0.53-4.25
		c-0.36-0.99-0.78-1.7-1.28-2.13c-0.5-0.43-1.1-0.71-1.81-0.85c-0.71-0.14-1.49-0.28-2.34-0.43c-1.14-0.14-2.31-0.35-3.51-0.64
		c-1.21-0.28-2.16-0.99-2.87-2.13c-0.29-0.28-0.32-0.6-0.11-0.96c0.21-0.35,0.53-0.46,0.96-0.32c1.56,0.43,3.08,0.71,4.57,0.85
		c1.49,0.14,3.01,0.21,4.57,0.21c2.13,0,4.29-0.07,6.49-0.21c2.2-0.14,4.43-0.35,6.7-0.64c2.13-0.28,4.25-0.5,6.38-0.64
		c2.13-0.14,4.25-0.21,6.38-0.21c3.69,0,7.44,0.53,11.27,1.59s7.34,2.63,10.53,4.68c3.19,2.06,5.81,4.65,7.87,7.76
		c2.05,3.12,3.08,6.81,3.08,11.06c0,5.25-1.46,10.1-4.36,14.57c-2.91,4.47-6.2,8.4-9.89,11.8c7.37,2.41,13.47,6.38,18.29,11.91
		c4.82,5.53,7.23,12.33,7.23,20.42C553.49,173.32,552.46,178.07,550.41,182.32z M536.26,158.07c-2.13-4.11-5-7.44-8.61-10
		c-3.62-2.55-7.73-4.43-12.33-5.64c-4.61-1.2-9.46-1.88-14.57-2.02v44.45c0,1.84,0.57,3.51,1.7,5c1.13,1.49,2.55,2.76,4.25,3.83
		s3.51,1.88,5.42,2.45c1.91,0.57,3.72,0.85,5.42,0.85c3.26,0,6.24-0.67,8.93-2.02c2.69-1.35,5-3.15,6.91-5.42
		c1.91-2.27,3.4-4.86,4.47-7.76c1.06-2.9,1.6-5.92,1.6-9.04C539.45,167.08,538.39,162.19,536.26,158.07z M527.54,103.52
		c-0.85-2.62-2.09-4.96-3.72-7.02c-1.63-2.05-3.65-3.69-6.06-4.89c-2.41-1.2-5.18-1.81-8.29-1.81c-1.42,0-2.84,0.14-4.25,0.43
		c-1.42,0.29-2.84,0.64-4.25,1.06v42.53h0.64c4.11,0,7.83-0.28,11.17-0.85c3.33-0.56,6.2-1.66,8.61-3.3
		c2.41-1.63,4.25-3.86,5.53-6.7c1.28-2.83,1.91-6.59,1.91-11.27C528.82,108.88,528.39,106.15,527.54,103.52z"/>
	<path class="st0" d="M671.84,203.9c-2.62,0.64-5.21,0.96-7.76,0.96c-4.25,0-8.08-0.78-11.48-2.34c-3.4-1.56-6.45-3.54-9.15-5.96
		c-2.69-2.41-5.21-5.17-7.55-8.29c-2.34-3.12-4.57-6.31-6.7-9.57c-1.99-2.98-4.08-5.92-6.27-8.83c-2.2-2.9-4.61-5.53-7.23-7.87
		c-2.62-2.34-5.46-4.22-8.51-5.64c-3.05-1.42-6.49-2.13-10.31-2.13c-1.14,0-2.27,0-3.4,0c-0.99,0-2.06,0.14-3.19,0.43v30.2
		c0,4.11,1.24,7.62,3.72,10.53c2.48,2.91,5.78,4.57,9.89,5v1.7c-3.26-0.28-6.49-0.53-9.68-0.74s-6.42-0.32-9.68-0.32
		c-3.26,0-6.42,0.14-9.46,0.43c-3.05,0.29-6.2,0.64-9.46,1.06c-0.42,0.14-0.74-0.03-0.96-0.53c-0.21-0.5-0.11-0.88,0.32-1.17
		c2.98-1.42,5.46-3.54,7.44-6.38c1.98-2.83,2.98-5.88,2.98-9.14v-84.86c0-3.26-1.17-6.13-3.51-8.61c-2.34-2.48-5.14-4.15-8.4-5
		c-0.42-0.14-0.6-0.46-0.53-0.96c0.07-0.5,0.32-0.74,0.74-0.74h41.9c4.39,0,8.72,0.53,12.97,1.59c4.25,1.06,8.01,2.73,11.27,5
		c3.26,2.27,5.88,5.25,7.87,8.93c1.98,3.69,2.98,8.08,2.98,13.19c0,6.81-1.88,13.26-5.64,19.35c-3.76,6.1-7.97,11.34-12.65,15.74
		c1.56,1.7,3.26,3.86,5.1,6.49c1.84,2.62,3.83,5.35,5.96,8.19c3.12,4.25,6.41,8.61,9.89,13.08c3.47,4.47,7.12,8.51,10.95,12.12
		c3.83,3.62,7.8,6.45,11.91,8.51c4.11,2.06,8.29,2.8,12.55,2.23l0.64,1.7C676.98,202.38,674.46,203.27,671.84,203.9z M623.99,110.65
		c-1.06-3.69-2.66-7.02-4.79-10s-4.75-5.42-7.87-7.34c-3.12-1.91-6.74-2.87-10.85-2.87c-1.7,0-3.4,0.11-5.1,0.32
		c-1.7,0.21-3.33,0.67-4.89,1.38v52.96c2.41,0.43,4.75,0.71,7.02,0.85c2.27,0.14,4.61,0.21,7.02,0.21c7.94,0,13.43-2.16,16.48-6.49
		c3.05-4.32,4.57-10.31,4.57-17.97C625.58,118.02,625.05,114.34,623.99,110.65z"/>
	<path class="st0" d="M720.96,201.99c-2.62-0.07-5.28-0.11-7.97-0.11c-3.83,0-7.59,0.04-11.27,0.11c-3.69,0.07-7.44,0.18-11.27,0.32
		c-0.42,0-0.67-0.25-0.74-0.74c-0.07-0.5,0.11-0.81,0.53-0.96c3.54-1.28,6.13-3.22,7.76-5.85c1.63-2.62,2.45-5.78,2.45-9.46V97.04
		c0-3.26-1.1-5.53-3.3-6.81c-2.2-1.28-4.79-2.13-7.76-2.55c-0.42-0.14-0.6-0.46-0.53-0.96c0.07-0.5,0.32-0.74,0.74-0.74
		c2.98,0.29,5.96,0.5,8.93,0.64c2.98,0.14,6.02,0.21,9.14,0.21c2.98,0,5.96-0.07,8.93-0.21c2.98-0.14,5.88-0.43,8.72-0.85
		c0.42-0.14,0.71,0.07,0.85,0.64c0.14,0.57,0,0.92-0.43,1.06c-3.12,0.71-5.64,1.56-7.55,2.55c-1.91,0.99-2.87,3.33-2.87,7.02v87.62
		c0,5.39,1.03,9.25,3.08,11.59c2.05,2.34,5.64,3.72,10.74,4.15v1.7C726.32,202.1,723.59,202.06,720.96,201.99z"/>
	<path class="st0" d="M849.63,201.46c-1.77-0.14-3.65-0.28-5.64-0.43c-1.14-0.14-2.31-0.25-3.51-0.32
		c-1.21-0.07-2.45-0.11-3.72-0.11c-3.26,0-6.52,0.14-9.78,0.42c-3.26,0.29-6.52,0.57-9.78,0.85c-0.42,0-0.71-0.21-0.85-0.64
		c-0.14-0.42,0-0.78,0.43-1.06l8.29-4.04c-2.41-6.66-4.93-13.22-7.55-19.67c-2.62-6.45-5.14-13.08-7.55-19.89H777
		c-0.71,1.84-1.74,4.57-3.08,8.19c-1.35,3.62-2.66,7.37-3.93,11.27c-1.28,3.9-2.41,7.59-3.4,11.06c-0.99,3.48-1.49,5.99-1.49,7.55
		c0,2.13,0.92,3.51,2.76,4.15c1.84,0.64,3.62,1.1,5.32,1.38v1.7c-2.7-0.28-5.46-0.53-8.29-0.75c-2.84-0.21-5.67-0.32-8.51-0.32
		c-2.84,0-5.67,0.11-8.51,0.32c-2.84,0.21-5.67,0.46-8.51,0.75c-0.42,0.14-0.67-0.07-0.74-0.64c-0.07-0.56,0.11-0.92,0.53-1.06
		c7.8-0.99,13.26-5.1,16.38-12.33v0.21c4.11-10.35,8.08-20.7,11.91-31.05c3.83-10.35,7.58-20.77,11.27-31.26
		c2.55-7.09,5.03-14.14,7.44-21.16c2.41-7.02,4.96-14.07,7.66-21.16c0.14-0.43,0.42-0.64,0.85-0.64s0.71,0.21,0.85,0.64
		c0.71,1.99,1.45,3.93,2.23,5.85c0.78,1.91,1.52,3.86,2.23,5.85c5.81,15.88,11.87,31.83,18.18,47.85c6.31,16.02,13.5,31.69,21.59,47
		c1.7,3.26,3.86,5.6,6.49,7.02c2.62,1.42,5.64,2.27,9.04,2.55v1.7C853.28,201.53,851.4,201.6,849.63,201.46z M793.59,105.33
		c-2.41,7.52-4.71,14.85-6.91,22.01c-2.2,7.16-4.65,14.57-7.34,22.22h27.43L793.59,105.33z"/>
</g>
<path id="underline" class="st0" d="M82.09,271.32c11.64-6.8,24.6-11.74,37.24-16.23c33.72-11.99,69.13-19.15,104.73-22.47
	c30.19-2.81,60.54-2.13,90.82-2.12c27.37,0.01,54.74,0.03,82.11,0.05c31.42,0.02,62.85,0.05,94.27,0.07
	c32.65,0.03,65.29,0.06,97.94,0.09c31.04,0.03,62.09,0.06,93.13,0.09c26.61,0.03,53.22,0.06,79.83,0.09
	c19.35,0.02,38.7,0.04,58.04,0.06c9.22,0.01,18.56,0.47,27.77,0.03c0.4-0.02,0.81,0,1.22,0c1.25,0,3.1-2.19,3.92-3
	c0.27-0.27,2.28-2.43,1.57-2.43c-6.39-0.01-12.79-0.01-19.18-0.02c-17.17-0.02-34.34-0.04-51.51-0.06
	c-25.11-0.03-50.23-0.05-75.34-0.08c-30.38-0.03-60.76-0.06-91.15-0.09c-32.52-0.03-65.05-0.06-97.57-0.09
	c-32.11-0.03-64.23-0.06-96.34-0.08c-28.56-0.02-57.13-0.04-85.69-0.05c-25.15-0.01-50.36-0.5-75.5,0.16
	c-40.3,1.07-80.63,6.89-119.29,18.45c-18.46,5.52-36.95,12.17-54,21.26c-0.78,0.42-1.56,0.83-2.32,1.28
	c-1.55,0.91-3.02,2.17-4.19,3.53C82.35,270.04,80.71,272.12,82.09,271.32L82.09,271.32z"/>
</svg>
