<?xml version="1.0" encoding="UTF-8"?>
<svg id="Ebene_2" data-name="Ebene 2" xmlns="http://www.w3.org/2000/svg" viewBox="0 0 328.9 328.9">
  <defs>
    <style>
      .cls-1 {
        fill: #fff;
        fill-rule: evenodd;
      }
    </style>
  </defs>
  <g id="bluesky">
    <path class="cls-1" d="M164.45,0c90.82,0,164.45,73.63,164.45,164.45s-73.63,164.45-164.45,164.45S0,255.27,0,164.45,73.63,0,164.45,0ZM118.05,101.84c18.78,14.15,38.98,42.83,46.39,58.22,7.42-15.39,27.62-44.07,46.4-58.22,13.55-10.2,35.51-18.1,35.51,7.03,0,5.02-2.87,42.16-4.55,48.19-5.85,20.96-27.15,26.31-46.11,23.07,33.13,5.66,41.56,24.39,23.36,43.13-34.57,35.58-49.68-8.93-53.55-20.33-1.12-3.28-.96-3.36-2.1,0-3.87,11.41-18.99,55.92-53.55,20.33-18.2-18.74-9.77-37.47,23.35-43.13-18.95,3.24-40.26-2.11-46.11-23.07-1.68-6.03-4.55-43.18-4.55-48.19,0-25.13,21.96-17.23,35.51-7.03h0Z"/>
  </g>
</svg>