<?xml version="1.0" encoding="UTF-8"?>
<svg id="Ebene_2" data-name="Ebene 2" xmlns="http://www.w3.org/2000/svg" viewBox="0 0 328.9 328.89">
  <defs>
    <style>
      .cls-1 {
        fill: #fff;
      }
    </style>
  </defs>
  <g id="StreamIO">
    <path class="cls-1" d="M164.91,0h-.92C73.41,0,0,73.41,0,163.98v.93c0,90.57,73.41,163.98,163.99,163.98h.92c90.57,0,163.99-73.41,163.99-163.98v-.93C328.9,73.41,255.48,0,164.91,0ZM77.67,166.05l-.36-.56c-9.83-15.14-5.53-35.39,9.61-45.22l100.66-65.37c15.14-9.83,35.38-5.53,45.21,9.61l.37.57c9.83,15.14,5.53,35.38-9.61,45.21l-100.66,65.37c-15.14,9.83-35.38,5.53-45.22-9.61ZM89.67,259.06l-.36-.57c-9.83-15.14-5.53-35.38,9.61-45.21l100.66-65.37c15.14-9.83,35.38-5.53,45.21,9.61l.37.56c9.83,15.14,5.53,35.39-9.61,45.22l-100.66,65.37c-15.14,9.83-35.38,5.53-45.22-9.61ZM139.7,312.19c100.11-5.27,166.32-66.17,173.15-167.44,16.6,101.83-72.78,185.55-173.15,167.44Z"/>
  </g>
</svg>