<?xml version="1.0" encoding="UTF-8"?>
<svg id="Ebene_2" data-name="Ebene 2" xmlns="http://www.w3.org/2000/svg" viewBox="0 0 327.96 327.96">
  <g id="youtube">
    <path d="M141.69,131.8l55.72,32.18-55.72,32.18v-64.36ZM327.96,163.98c0,90.57-73.42,163.98-163.98,163.98S0,254.55,0,163.98,73.42,0,163.98,0s163.98,73.41,163.98,163.98ZM267.24,130c-1.29-12.45-4.07-26.22-14.29-33.45-7.91-5.61-18.33-5.82-28.03-5.82-20.54.02-41.08.05-61.62.07-19.75.02-39.5.02-59.24.04-8.25,0-16.27-.63-23.93,2.94-6.59,3.06-11.74,8.9-14.83,15.38-4.3,9.02-5.2,19.25-5.73,29.23-.94,18.16-.85,36.39.3,54.55.84,13.24,2.97,27.9,13.21,36.33,9.09,7.48,21.9,7.85,33.67,7.87,37.38.02,74.78.05,112.16.09,4.79,0,9.79-.09,14.67-.61,9.62-1.05,18.78-3.8,24.96-10.91,6.23-7.18,7.83-17.18,8.78-26.64,2.3-22.95,2.28-46.13-.08-69.07Z"/>
  </g>
</svg>