<?xml version="1.0" encoding="UTF-8"?>
<svg id="Ebene_2" data-name="Ebene 2" xmlns="http://www.w3.org/2000/svg" viewBox="0 0 328.9 328.09">
  <g id="facebook">
    <path d="M328.9,163.97v.94c0,85.08-64.79,155.02-147.72,163.18v-129.71h33.43l12.87-33.87h-47.76v-13.52c0-21.72,11.05-33.68,31.12-33.68,7.25,0,14.29,1.59,20.41,4.59l11.56-31.84c-9.08-4.9-22.74-7.75-37.48-7.75-22.4,0-40.74,6.43-53.04,18.59-11.91,11.78-18.2,28.98-18.2,49.73v13.88h-30.46v33.87h30.46v127.79C57.79,312.13,0,245.26,0,164.91v-.94C0,73.41,73.41,0,163.99,0h.92c90.57,0,163.99,73.41,163.99,163.97Z"/>
  </g>
</svg>