<?xml version="1.0" encoding="UTF-8"?>
<svg id="Logo_VIBRIA" xmlns="http://www.w3.org/2000/svg" version="1.1" viewBox="0 0 855.9 302.5">
  <!-- Generator: Adobe Illustrator 29.5.0, SVG Export Plug-In . SVG Version: 2.1.0 Build 137)  -->
  <defs>
    <style>
      .st0 {
        fill: #003e52;
      }

      .st1 {
        isolation: isolate;
      }
    </style>
  </defs>
  <g>
    <path class="st0" d="M19,192.7c8.3-44.6,29.4-48.5,57.8-86.2s9.8-98.9,10.8-63.7c1,35.3-24.5,56.3-33.8,63.2s-21.5,35.3-29.4,52.4c-7.8,17.1-25,26-23,42.1,2,16.2,22,13.2,24.5,4.4,2.4-8.8-6.9-12.2-6.9-12.2Z"/>
    <path class="st0" d="M86,102.5S132.1,56.5,124.7.7c0,0-8.8,49-30.4,68.6,0,0,2.4,15.7-8.3,33.3h0Z"/>
    <path class="st0" d="M78.7,112.3c-18.6,15.2-41.1,45.1-41.1,45.1,3.4-2.9,12.2-5.9,25.5-14.2,13.2-8.3,15.7-30.9,15.7-30.9h0Z"/>
    <path class="st0" d="M23.4,187.8c9.8-19.1,18-15.9,40.2-27.4,30.3-15.8,18.1-49,18.1-49,1,17.1-6.4,34.8-30.9,44.6-24.5,9.8-27.4,31.8-27.4,31.8Z"/>
    <path class="st0" d="M87,114.3s7.1,30.9-13.6,45.1c-18.8,12.9-49.7,16.3-45.6,36.1,0,0,7.1-11.1,30.9-16.3,23.9-5.2,50.5-21.2,28.2-64.9h0Z"/>
    <path class="st0" d="M74.8,181.4c26.9-6.4,40.2-33.3,36.2-62.7-3.9-29.4,2.4-43.6,2.4-43.6-17.1,19.6-22.5,27.9-22,34.8.5,6.9,8.3,7.8,9.3,32.8s-26,38.7-26,38.7h0Z"/>
    <path class="st0" d="M85.1,233.3c93-65.6,30.4-142,30.4-142-3.4,7.3.5,28.9.5,28.9,5.4,44.6-27.4,61.7-27.4,61.7,17.1,25.5-3.4,51.4-3.4,51.4h0Z"/>
    <path class="st0" d="M75.8,238.2c27.4-31.8,4.9-54.4,4.9-54.4,2.9,13.7,8.3,20.6-22.5,54.4-30.9,33.8-1,63.7-1,63.7-9.3-21.1-8.8-31.8,18.6-63.7Z"/>
    <path class="st0" d="M99.3,240.6c19.7-12.5,46.3-25,65.4-50s13.2-80.8,48.5-124.9,103.6-55.1,103.6-55.1c-105.8,2.2-178.5,75.7-178.5,75.7,30.9,23.5,38,99.4-27.7,137.1-67,38.5-51.4,73.5-51.4,73.5,1.7-25.2,21.5-44.6,40.2-56.3h-.1Z"/>
    <path class="st0" d="M188.9,136.3s7.3-20.6,28.7-33.1c24.1-14.1,41-32.4,52.2-51.4,10.1-17.2,27.2-33.8,27.2-33.8-99.9,30.1-108,118.3-108,118.3h-.1Z"/>
    <path class="st0" d="M222.2,110.4c-34.3,17.1-48,73.9-48,73.9,80.3-43.6,85.7-110.7,85.7-110.7,0,0-3.4,19.6-37.7,36.7h0Z"/>
    <path class="st0" d="M173.2,191.2c-4.4,5.9-11.3,20.1-50,39.2-38.7,19.1-50.9,44.1-50.9,44.1,24.5-25,48.2-32.3,107.7-58.8,59.5-26.4,69.1-92.6,69.1-92.6-33.8,55.3-75.9,68.1-75.9,68.1h0Z"/>
    <path class="st0" d="M44,256.6s-5.6,1.6-6.9,6.5,2.5,10,2.5,10c0,0,1.6.7,2.2-8.2.5-6.9,2.2-8.2,2.2-8.2h0Z"/>
  </g>
  <g>
    <path class="st0" d="M411.2,88.3c-1.4.3-2.8.6-4,1.1s-2.5,1.2-3.6,2.3c-.6.7-1.9,3.3-4,7.9-2.1,4.5-4.6,10.2-7.5,17s-6.1,14.2-9.6,22.3-6.8,16-10.1,23.8c-2,4.7-3.9,9.2-5.7,13.5-1.8,4.3-3.5,8.3-5.1,11.9-1.6,3.6-2.9,6.8-4.1,9.6s-2.2,4.9-2.9,6.3c-.1.3-.4.4-.6.4s-.6-.1-.9-.4c-5.2-8.9-9.7-18-13.4-27.3-3.7-9.3-7.2-18.7-10.4-28.2-3.4-9.8-6.9-19.3-10.4-28.5s-7.7-17.7-12.5-25.5c-1.1-2-2.3-3.3-3.6-3.8-1.3-.6-2.7-1.1-4.3-1.5-.9-.3-1.8-.6-3-.9-1.1-.3-2.3-.8-3.4-1.5-.4-.3-.6-.6-.4-1,.1-.4.4-.5.9-.5,2.4,0,4.7.2,6.9.3,2.2,0,4.4.2,6.7.3,4.3.3,8.5.5,12.9.6h13.1c.4,0,.6.3.6.9s-.2.9-.6.9-1.1,0-1.9.3c-.9.2-1.7.5-2.6.9s-1.6.7-2.2,1.2c-.6.4-1,.9-1,1.5,0,2,.8,5.5,2.4,10.5s3.6,10.8,6.1,17.4c2.4,6.6,5,13.5,7.9,20.6,2.8,7.2,5.5,13.9,8.1,20.1,2,4.5,3.6,8.3,4.8,11.3,1.2,3,2.2,5.5,2.9,7.7,1.7-4,3.8-8.9,6.4-14.7,2.7-6.1,5.6-12.7,8.6-19.8s5.9-14,8.6-20.7,4.9-13,6.7-18.8c1.8-5.8,2.7-10.4,2.7-13.8s-.4-1.1-1.1-1.6-1.6-.9-2.6-1.3-2-.6-3-.9c-1-.2-1.7-.4-2.1-.5-.3,0-.4-.5-.2-1.1.1-.6.4-.8.6-.6.7,0,1.4.2,2.1.2s1.4,0,2.1.2h-.2c4,.4,8,.6,12.1.6s8.7-.2,13-.6h-.2c.7,0,1.4-.2,2-.3h2l.2,1.7c-1.4.3-2.4.5-3,.6h-.2,0Z"/>
    <path class="st0" d="M455.8,202c-2.6,0-5.3-.1-8-.1s-7.6,0-11.3.1c-3.7,0-7.4.2-11.3.3-.4,0-.7-.2-.7-.7s.1-.8.5-1c3.5-1.3,6.1-3.2,7.8-5.8,1.6-2.6,2.4-5.8,2.4-9.5v-88.3c0-3.3-1.1-5.5-3.3-6.8-2.2-1.3-4.8-2.1-7.8-2.6-.4,0-.6-.5-.5-1,0-.5.3-.7.7-.7,3,.3,6,.5,8.9.6,3,0,6,.2,9.1.2s6,0,8.9-.2c3,0,5.9-.4,8.7-.9.4,0,.7,0,.9.6.1.6,0,.9-.4,1.1-3.1.7-5.6,1.6-7.5,2.6s-2.9,3.3-2.9,7v87.6c0,5.4,1,9.3,3.1,11.6s5.6,3.7,10.7,4.1v1.7c-2.8,0-5.6,0-8.2-.1l.2.2h0Z"/>
    <path class="st0" d="M550.4,182.3c-2.1,4.3-4.8,7.9-8.2,10.8-3.4,3-7.3,5.3-11.8,6.9-4.5,1.6-9.2,2.4-14.1,2.4h-10.2c-3.3,0-6.6,0-10-.2-3.4-.1-6.8-.2-10.2-.2h-10c-.4,0-.7-.2-.7-.7s.1-.8.5-1c2.4-.9,4.3-1.6,5.7-2.3,1.4-.7,2.4-1.6,3.1-2.7.6-1.1,1-2.4,1.2-4,.1-1.6.2-3.6.2-6.1v-88.7c0-1.8-.2-3.3-.5-4.3-.4-1-.8-1.7-1.3-2.1s-1.1-.7-1.8-.9c-.7,0-1.5-.3-2.3-.4-1.1,0-2.3-.4-3.5-.6-1.2-.3-2.2-1-2.9-2.1-.3-.3-.3-.6-.1-1,.2-.4.5-.5,1-.3,1.6.4,3.1.7,4.6.9,1.5,0,3,.2,4.6.2s4.3,0,6.5-.2c2.2,0,4.4-.4,6.7-.6,2.1-.3,4.3-.5,6.4-.6s4.3-.2,6.4-.2c3.7,0,7.4.5,11.3,1.6s7.3,2.6,10.5,4.7,5.8,4.6,7.9,7.8c2.1,3.1,3.1,6.8,3.1,11.1s-1.5,10.1-4.4,14.6c-2.9,4.5-6.2,8.4-9.9,11.8,7.4,2.4,13.5,6.4,18.3,11.9s7.2,12.3,7.2,20.4-1,10-3.1,14.2h-.2ZM536.3,158.1c-2.1-4.1-5-7.4-8.6-10s-7.7-4.4-12.3-5.6c-4.6-1.2-9.5-1.9-14.6-2v44.4c0,1.8.6,3.5,1.7,5s2.6,2.8,4.3,3.8,3.5,1.9,5.4,2.4c1.9.6,3.7.9,5.4.9,3.3,0,6.2-.7,8.9-2s5-3.2,6.9-5.4c1.9-2.3,3.4-4.9,4.5-7.8,1.1-2.9,1.6-5.9,1.6-9,0-5.7-1.1-10.6-3.2-14.7h0ZM527.5,103.5c-.9-2.6-2.1-5-3.7-7-1.6-2.1-3.7-3.7-6.1-4.9-2.4-1.2-5.2-1.8-8.3-1.8s-2.8,0-4.3.4c-1.4.3-2.8.6-4.3,1.1v42.5h.6c4.1,0,7.8-.3,11.2-.9,3.3-.6,6.2-1.7,8.6-3.3,2.4-1.6,4.3-3.9,5.5-6.7,1.3-2.8,1.9-6.6,1.9-11.3s-.4-5.6-1.3-8.2h.2,0Z"/>
    <path class="st0" d="M671.8,203.9c-2.6.6-5.2,1-7.8,1-4.3,0-8.1-.8-11.5-2.3-3.4-1.6-6.5-3.5-9.1-6-2.7-2.4-5.2-5.2-7.5-8.3s-4.6-6.3-6.7-9.6c-2-3-4.1-5.9-6.3-8.8-2.2-2.9-4.6-5.5-7.2-7.9-2.6-2.3-5.5-4.2-8.5-5.6-3-1.4-6.5-2.1-10.3-2.1h-3.4c-1,0-2.1.1-3.2.4v30.2c0,4.1,1.2,7.6,3.7,10.5s5.8,4.6,9.9,5v1.7c-3.3-.3-6.5-.5-9.7-.7s-6.4-.3-9.7-.3-6.4.1-9.5.4c-3.1.3-6.2.6-9.5,1.1-.4.1-.7,0-1-.5-.2-.5,0-.9.3-1.2,3-1.4,5.5-3.5,7.4-6.4,2-2.8,3-5.9,3-9.1v-84.9c0-3.3-1.2-6.1-3.5-8.6s-5.1-4.1-8.4-5c-.4,0-.6-.5-.5-1,0-.5.3-.7.7-.7h41.9c4.4,0,8.7.5,13,1.6s8,2.7,11.3,5,5.9,5.2,7.9,8.9c2,3.7,3,8.1,3,13.2s-1.9,13.3-5.6,19.4c-3.8,6.1-8,11.3-12.7,15.7,1.6,1.7,3.3,3.9,5.1,6.5s3.8,5.4,6,8.2c3.1,4.3,6.4,8.6,9.9,13.1s7.1,8.5,11,12.1c3.8,3.6,7.8,6.5,11.9,8.5,4.1,2.1,8.3,2.8,12.5,2.2l.6,1.7c-2.4,1.1-4.9,2-7.5,2.7h0ZM624,110.6c-1.1-3.7-2.7-7-4.8-10s-4.8-5.4-7.9-7.3c-3.1-1.9-6.7-2.9-10.8-2.9s-3.4,0-5.1.3c-1.7.2-3.3.7-4.9,1.4v53c2.4.4,4.7.7,7,.9,2.3.1,4.6.2,7,.2,7.9,0,13.4-2.2,16.5-6.5,3-4.3,4.6-10.3,4.6-18s-.5-7.4-1.6-11.1Z"/>
    <path class="st0" d="M721,202c-2.6,0-5.3-.1-8-.1s-7.6,0-11.3.1c-3.7,0-7.4.2-11.3.3-.4,0-.7-.2-.7-.7s0-.8.5-1c3.5-1.3,6.1-3.2,7.8-5.8,1.6-2.6,2.4-5.8,2.4-9.5v-88.3c0-3.3-1.1-5.5-3.3-6.8s-4.8-2.1-7.8-2.6c-.4,0-.6-.5-.5-1,0-.5.3-.7.7-.7,3,.3,6,.5,8.9.6,3,0,6,.2,9.1.2s6,0,8.9-.2c3,0,5.9-.4,8.7-.9.4,0,.7,0,.9.6,0,.6,0,.9-.4,1.1-3.1.7-5.6,1.6-7.5,2.6s-2.9,3.3-2.9,7v87.6c0,5.4,1,9.3,3.1,11.6s5.6,3.7,10.7,4.1v1.7c-2.8,0-5.6,0-8.2-.1l.2.2h0Z"/>
    <path class="st0" d="M849.6,201.5c-1.8-.1-3.7-.3-5.6-.4-1.1-.1-2.3-.2-3.5-.3-1.2,0-2.4-.1-3.7-.1-3.3,0-6.5.1-9.8.4-3.3.3-6.5.6-9.8.9-.4,0-.7-.2-.9-.6,0-.4,0-.8.4-1.1l8.3-4c-2.4-6.7-4.9-13.2-7.5-19.7s-5.1-13.1-7.5-19.9h-33c-.7,1.8-1.7,4.6-3.1,8.2-1.3,3.6-2.7,7.4-3.9,11.3-1.3,3.9-2.4,7.6-3.4,11.1s-1.5,6-1.5,7.5.9,3.5,2.8,4.1c1.8.6,3.6,1.1,5.3,1.4v1.7c-2.7-.3-5.5-.5-8.3-.7s-5.7-.3-8.5-.3-5.7.1-8.5.3-5.7.5-8.5.7c-.4.1-.7,0-.7-.6s0-.9.5-1.1c7.8-1,13.3-5.1,16.4-12.3v.2c4.1-10.3,8.1-20.7,11.9-31,3.8-10.3,7.6-20.8,11.3-31.3,2.6-7.1,5-14.1,7.4-21.2,2.4-7,5-14.1,7.7-21.2,0-.4.4-.6.9-.6s.7.2.9.6c.7,2,1.5,3.9,2.2,5.8.8,1.9,1.5,3.9,2.2,5.8,5.8,15.9,11.9,31.8,18.2,47.9,6.3,16,13.5,31.7,21.6,47,1.7,3.3,3.9,5.6,6.5,7s5.6,2.3,9,2.6v1.7c-2,.3-3.9.4-5.6.2h-.2ZM793.6,105.3c-2.4,7.5-4.7,14.9-6.9,22-2.2,7.2-4.6,14.6-7.3,22.2h27.4l-13.2-44.2Z"/>
  </g>
  <path class="st0" d="M82.1,271.3c11.6-6.8,24.6-11.7,37.2-16.2,33.7-12,69.1-19.2,104.7-22.5,30.2-2.8,60.5-2.1,90.8-2.1h505.2c19.3,0,18.6.5,27.8,0s.8,0,1.2,0c1.3,0,3.1-2.2,3.9-3s2.3-2.4,1.6-2.4H337.8c-25.1,0-50.4-.5-75.5.2-40.3,1.1-80.6,6.9-119.3,18.4-18.5,5.5-37,12.2-54,21.3-.8.4-1.6.8-2.3,1.3-1.5.9-3,2.2-4.2,3.5s-1.9,2.4-.5,1.6h.1Z"/>
  <g class="st1">
    <g class="st1">
      <path class="st0" d="M376.9,283.4h-2.9l-12.9-17.7-4.5,3.9v13.8h-2.3v-33.6h2.3v17.4l3.7-3.7,13.1-13.7h3l-13.7,14.2,14.1,19.4Z"/>
      <path class="st0" d="M383.1,258.5v16.2c0,2.5.5,4.3,1.6,5.5,1.1,1.1,2.7,1.7,4.9,1.7s5.2-.7,6.6-2.2c1.4-1.5,2.1-3.9,2.1-7.3v-13.8h2.2v24.9h-1.9l-.4-3.4h-.1c-1.6,2.6-4.5,3.9-8.7,3.9s-8.5-3-8.5-9.1v-16.3h2.2Z"/>
      <path class="st0" d="M426.2,283.4v-16.2c0-2.5-.5-4.3-1.6-5.5s-2.7-1.7-4.9-1.7-5.2.8-6.6,2.3-2.1,4-2.1,7.3v13.8h-2.3v-24.9h1.9l.4,3.4h.1c1.6-2.6,4.5-3.9,8.7-3.9s8.5,3,8.5,9.1v16.3h-2.2Z"/>
      <path class="st0" d="M452,276.9c0,2.2-.8,4-2.5,5.2-1.7,1.2-4.1,1.8-7.2,1.8s-6-.5-7.9-1.5v-2.5c2.5,1.3,5.2,1.9,7.9,1.9s4.3-.4,5.6-1.2,1.9-1.9,1.9-3.3-.5-2.3-1.5-3.2c-1-.9-2.7-1.7-5-2.5-2.5-.9-4.2-1.7-5.3-2.3s-1.8-1.4-2.3-2.2-.8-1.8-.8-3c0-1.9.8-3.3,2.4-4.4,1.6-1.1,3.8-1.6,6.6-1.6s5.2.5,7.7,1.5l-.8,2.1c-2.4-1-4.7-1.5-6.8-1.5s-3.6.3-4.8,1c-1.2.7-1.8,1.6-1.8,2.8s.5,2.3,1.4,3.1,2.7,1.7,5.4,2.6c2.2.8,3.9,1.5,4.9,2.2,1,.7,1.8,1.4,2.3,2.2s.8,1.8.8,2.9Z"/>
      <path class="st0" d="M465,281.8c1.4,0,2.7-.1,3.8-.4v1.8c-1.1.4-2.4.6-3.8.6-2.2,0-3.8-.6-4.9-1.8-1-1.2-1.6-3-1.6-5.6v-16.1h-3.7v-1.3l3.7-1,1.1-5.6h1.2v6h7.3v2h-7.3v15.8c0,1.9.3,3.3,1,4.2.7.9,1.7,1.4,3.2,1.4Z"/>
      <path class="st0" d="M472.1,271.6v-1.9h10.9v1.9h-10.9Z"/>
      <path class="st0" d="M503.5,258.5v16.2c0,2.5.5,4.3,1.6,5.5,1.1,1.1,2.7,1.7,4.9,1.7s5.2-.7,6.6-2.2c1.4-1.5,2.1-3.9,2.1-7.3v-13.8h2.2v24.9h-1.9l-.4-3.4h-.1c-1.6,2.6-4.5,3.9-8.7,3.9s-8.5-3-8.5-9.1v-16.3h2.2Z"/>
      <path class="st0" d="M546.6,283.4v-16.2c0-2.5-.5-4.3-1.6-5.5s-2.7-1.7-4.9-1.7-5.2.8-6.6,2.3-2.1,4-2.1,7.3v13.8h-2.3v-24.9h1.9l.4,3.4h.1c1.6-2.6,4.5-3.9,8.7-3.9s8.5,3,8.5,9.1v16.3h-2.2Z"/>
      <path class="st0" d="M566.1,258c1.8,0,3.4.3,4.7,1,1.3.7,2.5,1.8,3.5,3.4h.1c0-1.9-.1-3.8-.1-5.7v-9h2.2v35.7h-1.5l-.6-3.8h-.2c-1.9,2.8-4.6,4.3-8.2,4.3s-6.1-1.1-7.9-3.2c-1.8-2.1-2.7-5.3-2.7-9.4s.9-7.6,2.7-9.9c1.8-2.3,4.4-3.4,7.9-3.4ZM566.1,260c-2.7,0-4.8,1-6.1,2.9-1.4,1.9-2.1,4.7-2.1,8.3,0,7.1,2.7,10.6,8.2,10.6s4.9-.8,6.2-2.5c1.3-1.6,2-4.3,2-8.1v-.4c0-3.9-.6-6.6-1.9-8.3s-3.4-2.5-6.3-2.5Z"/>
      <path class="st0" d="M620.3,283.4h-2.9l-12.9-17.7-4.5,3.9v13.8h-2.3v-33.6h2.3v17.4l3.7-3.7,13.1-13.7h3l-13.7,14.2,14.1,19.4Z"/>
      <path class="st0" d="M626.4,258.5v16.2c0,2.5.5,4.3,1.6,5.5,1.1,1.1,2.7,1.7,4.9,1.7s5.2-.7,6.6-2.2c1.4-1.5,2.1-3.9,2.1-7.3v-13.8h2.2v24.9h-1.9l-.4-3.4h-.1c-1.6,2.6-4.5,3.9-8.7,3.9s-8.5-3-8.5-9.1v-16.3h2.2Z"/>
      <path class="st0" d="M654.4,283.4h-2.3v-35.7h2.3v35.7Z"/>
      <path class="st0" d="M669.4,281.8c1.4,0,2.7-.1,3.8-.4v1.8c-1.1.4-2.4.6-3.8.6-2.2,0-3.8-.6-4.9-1.8-1-1.2-1.6-3-1.6-5.6v-16.1h-3.7v-1.3l3.7-1,1.1-5.6h1.2v6h7.3v2h-7.3v15.8c0,1.9.3,3.3,1,4.2.7.9,1.7,1.4,3.2,1.4Z"/>
      <path class="st0" d="M680.5,258.5v16.2c0,2.5.5,4.3,1.6,5.5,1.1,1.1,2.7,1.7,4.9,1.7s5.2-.7,6.6-2.2c1.4-1.5,2.1-3.9,2.1-7.3v-13.8h2.2v24.9h-1.9l-.4-3.4h-.1c-1.6,2.6-4.5,3.9-8.7,3.9s-8.5-3-8.5-9.1v-16.3h2.2Z"/>
      <path class="st0" d="M716.1,258c1.1,0,2.2.1,3.4.3l-.4,2.2c-1-.3-2.1-.4-3.2-.4-2.1,0-3.9.9-5.2,2.7-1.4,1.8-2,4.1-2,6.8v13.8h-2.3v-24.9h1.9l.2,4.5h.2c1-1.8,2.1-3.1,3.3-3.9,1.2-.7,2.6-1.1,4.2-1.1Z"/>
      <path class="st0" d="M730,283.4l-9.6-24.9h2.3l6.4,17c.9,2.2,1.5,4.1,1.9,5.7h.1c.6-2.1,1.3-4,1.9-5.7l6.4-16.9h2.3l-9.6,24.9h-2.3Z"/>
      <path class="st0" d="M756.2,283.9c-3.6,0-6.5-1.1-8.5-3.4-2-2.2-3-5.4-3-9.4s1-7.2,2.9-9.6c2-2.4,4.6-3.6,7.9-3.6s5.3,1,7,3.1c1.7,2.1,2.5,4.8,2.5,8.4v1.8h-18c0,3.4.8,6,2.4,7.8,1.6,1.8,3.8,2.7,6.7,2.7s2.7,0,3.8-.3c1.1-.2,2.4-.6,4.1-1.3v2.1c-1.4.6-2.7,1-3.9,1.3s-2.5.3-3.9.3ZM755.5,260c-2.4,0-4.3.8-5.8,2.4-1.5,1.6-2.3,3.9-2.5,6.9h15.4c0-2.9-.6-5.2-1.9-6.8-1.3-1.6-3-2.4-5.2-2.4Z"/>
      <path class="st0" d="M781.7,258c1.1,0,2.2.1,3.4.3l-.4,2.2c-1-.3-2.1-.4-3.2-.4-2.1,0-3.9.9-5.2,2.7-1.4,1.8-2,4.1-2,6.8v13.8h-2.3v-24.9h1.9l.2,4.5h.2c1-1.8,2.1-3.1,3.3-3.9,1.2-.7,2.6-1.1,4.2-1.1Z"/>
      <path class="st0" d="M800.3,283.9c-3.6,0-6.5-1.1-8.5-3.4-2-2.2-3-5.4-3-9.4s1-7.2,2.9-9.6c2-2.4,4.6-3.6,7.9-3.6s5.3,1,7,3.1c1.7,2.1,2.5,4.8,2.5,8.4v1.8h-18c0,3.4.8,6,2.4,7.8,1.6,1.8,3.8,2.7,6.7,2.7s2.7,0,3.8-.3c1.1-.2,2.4-.6,4.1-1.3v2.1c-1.4.6-2.7,1-3.9,1.3s-2.5.3-3.9.3ZM799.6,260c-2.4,0-4.3.8-5.8,2.4-1.5,1.6-2.3,3.9-2.5,6.9h15.4c0-2.9-.6-5.2-1.9-6.8-1.3-1.6-3-2.4-5.2-2.4Z"/>
      <path class="st0" d="M815.7,251.5c0-1.5.5-2.2,1.4-2.2s.8.2,1.1.6c.3.4.4.9.4,1.6s-.1,1.2-.4,1.6c-.3.4-.6.6-1.1.6-1,0-1.4-.7-1.4-2.2ZM818.3,283.4h-2.3v-24.9h2.3v24.9Z"/>
      <path class="st0" d="M844,283.4v-16.2c0-2.5-.5-4.3-1.6-5.5-1.1-1.1-2.7-1.7-4.9-1.7s-5.2.8-6.6,2.3-2.1,4-2.1,7.3v13.8h-2.3v-24.9h1.9l.4,3.4h.1c1.6-2.6,4.5-3.9,8.7-3.9s8.5,3,8.5,9.1v16.3h-2.2Z"/>
    </g>
  </g>
</svg>