<?xml version="1.0" encoding="UTF-8"?>
<svg id="Layer_1" xmlns="http://www.w3.org/2000/svg" version="1.1" viewBox="0 0 999.7 954.3">
  <!-- Generator: Adobe Illustrator 29.7.1, SVG Export Plug-In . SVG Version: 2.1.1 Build 8)  -->
  <path d="M254.4,860.1c11.9-7,25.1-13.2,37.8-18.9,35-16,71.2-30,107.8-41.5,57.2-18.5,116-33.3,175.2-44,77.3-14,155.5-21.8,233.6-23.9,36.6-.8,73.2-.8,109.8,0,6.6,0,13.2,0,19.7.4l3.7.4c-1.2,0,0,0,.8,0s0,0,0,0c0,1.2,12.8-8.6,14-9,2.9-2.5,5.8-5.3,8.2-8.2.8-1.2,2.5-2.9,2.5-4.5s-12.3-.8-13.2-.8c-29.2-.8-58.4-.8-87.6-.8-81.4.4-162.9,7-243.5,20.2-61.7,9.9-123,24.3-183,42.8-40.3,12.3-80.2,27.1-118.9,44.4-16,7-31.7,14.4-46.9,23l-.4.4c-6.6,4.1-12.3,9-17.3,14.4-1.5.3-8.1,8.9-2.3,5.6h0Z"/>
  <path d="M56.5,608.4c26.3-141.1,93-153.4,183-273.1s30.9-313.4,34.1-201.6c3.3,111.9-77.3,178.5-106.9,199.9s-68.3,111.9-93,166.2S-5.7,582.1.5,633.1s69.9,42,77.7,14c7.9-28-21.7-38.7-21.7-38.7h0Z"/>
  <path d="M269.2,322.9S415.2,176.9,391.8,0C391.8,0,363.8,155.1,295.5,217.2c0,.4,7.8,49.8-26.3,105.7Z"/>
  <path d="M245.7,353.7c-58.8,48.1-130.4,143.1-130.4,143.1,10.7-9.5,38.7-18.5,80.6-44.8s49.8-98.3,49.8-98.3Z"/>
  <path d="M70.5,592.7c30.9-60.5,57.2-50.2,127.1-86.8,96.3-50.2,57.6-155.1,57.6-155.1,3.3,54.3-20.2,110.2-97.9,141.1-77.3,31.3-86.8,100.8-86.8,100.8h0Z"/>
  <path d="M272,360.3s22.2,97.9-42.8,142.7c-59.6,40.7-157.5,51.4-144.8,114.4,0,0,22.2-35.4,97.9-51.4,75.8-16,160.5-67.5,89.7-205.7Z"/>
  <path d="M233.4,572.6c85.6-20.2,127.1-105.7,114.8-198.7s7.8-137.8,7.8-137.8c-54.3,62.1-71.2,88.4-69.9,110.2s26.3,24.7,29.6,104.1c3.2,79.4-82.3,122.2-82.3,122.2h0Z"/>
  <path d="M265.9,737.1c294.9-207.7,96.3-450,96.3-450-10.7,23.4,1.6,91.7,1.6,91.7,17.3,141.1-86.8,195.4-86.8,195.4,54.3,80.6-11.1,162.9-11.1,162.9Z"/>
  <path d="M236.7,752.7c86.8-100.8,15.6-172.3,15.6-172.3,9.5,43.6,26.3,65-71.6,172.3-97.9,107.4-3.3,201.6-3.3,201.6-29.2-66.6-27.9-100.8,59.3-201.6h0Z"/>
  <path d="M311.1,760.6c62.5-39.5,146.4-79,207.3-158.4s42-255.9,153.4-395.7c111.5-139.9,327.9-174.4,327.9-174.4-334.8,7-565.6,239.8-565.6,239.8,97.9,74.5,120.1,315.1-87.6,434.4-212.2,122.2-162.9,232.8-162.9,232.8,5.8-80.2,68.3-141.5,127.5-178.5h0Z"/>
  <path d="M594.9,429.8c18.1-43.6,50.2-80.6,90.9-104.9,68.3-39.1,125-95.4,165.4-162.9,32.1-54.3,86-106.9,86-106.9-316.8,95.4-342.3,374.7-342.3,374.7h0Z"/>
  <path d="M700.2,347.6c-108.6,54.3-152.2,234.5-152.2,234.5,254.6-138.2,271.5-350.5,271.5-350.5,0,0-10.7,61.7-119.3,116h0Z"/>
  <path d="M545.2,603.8c-14,18.5-35.8,63.8-158.4,124.2-122.6,60.5-161.2,139.9-161.2,139.9,77.7-79,153-102.4,341.4-186.3,188.4-83.9,218.8-293.3,218.8-293.3-106.9,175.2-240.6,215.5-240.6,215.5h0Z"/>
  <path d="M135.9,811.2s-17.7,5.3-21.8,20.6c-4.1,15.2,8.2,31.7,8.2,31.7,0,0,4.9,2.5,7-25.9,1.2-22.3,6.6-26.4,6.6-26.4h0Z"/>
</svg>