<?xml version="1.0" encoding="utf-8"?>
<!-- Generator: Adobe Illustrator 27.2.0, SVG Export Plug-In . SVG Version: 6.00 Build 0)  -->
<svg version="1.1" id="Layer_1" xmlns="http://www.w3.org/2000/svg" xmlns:xlink="http://www.w3.org/1999/xlink" x="0px" y="0px"
	 viewBox="0 0 3840 2160" style="enable-background:new 0 0 3840 2160;" xml:space="preserve">
<style type="text/css">
	.st0{fill:#FFFFFF;}
	.st1{fill:#FFFFFF;stroke:#FFFFFF;stroke-miterlimit:10;}
</style>
<path class="st0" d="M1674.7,1463.4c11.9-7,25.1-13.2,37.8-18.9c35-16,71.2-30,107.8-41.5c57.2-18.5,116-33.3,175.2-44
	c77.3-14,155.5-21.8,233.6-23.9c36.6-0.8,73.2-0.8,109.8,0c6.6,0,13.2,0,19.7,0.4l3.7,0.4c-1.2,0,0,0,0.8,0c0.8,0,0,0,0,0
	c0,1.2,12.8-8.6,14-9c2.9-2.5,5.8-5.3,8.2-8.2c0.8-1.2,2.5-2.9,2.5-4.5c0-0.8-12.3-0.8-13.2-0.8c-29.2-0.8-58.4-0.8-87.6-0.8
	c-81.4,0.4-162.9,7-243.5,20.2c-61.7,9.9-123,24.3-183,42.8c-40.3,12.3-80.2,27.1-118.9,44.4c-16,7-31.7,14.4-46.9,23l-0.4,0.4
	c-6.6,4.1-12.3,9-17.3,14.4C1675.5,1458.1,1668.9,1466.7,1674.7,1463.4L1674.7,1463.4z"/>
<path class="st1" d="M1476.8,1211.7c26.3-141.1,93-153.4,183-273.1s30.9-313.4,34.1-201.6c3.3,111.9-77.3,178.5-106.9,199.9
	c-29.6,21.4-68.3,111.9-93,166.2s-79.4,82.3-73.2,133.3s69.9,42,77.7,14C1506.4,1222.4,1476.8,1211.7,1476.8,1211.7z"/>
<path class="st1" d="M1689.5,926.2c0,0,146-146,122.6-322.9c0,0-28,155.1-96.3,217.2C1715.8,820.9,1723.6,870.3,1689.5,926.2z"/>
<path class="st1" d="M1666,957c-58.8,48.1-130.4,143.1-130.4,143.1c10.7-9.5,38.7-18.5,80.6-44.8S1666,957,1666,957z"/>
<path class="st1" d="M1490.8,1196c30.9-60.5,57.2-50.2,127.1-86.8c96.3-50.2,57.6-155.1,57.6-155.1c3.3,54.3-20.2,110.2-97.9,141.1
	C1500.3,1126.5,1490.8,1196,1490.8,1196z"/>
<path class="st1" d="M1692.3,963.6c0,0,22.2,97.9-42.8,142.7c-59.6,40.7-157.5,51.4-144.8,114.4c0,0,22.2-35.4,97.9-51.4
	C1678.4,1153.3,1763.1,1101.8,1692.3,963.6z"/>
<path class="st1" d="M1653.7,1175.9c85.6-20.2,127.1-105.7,114.8-198.7s7.8-137.8,7.8-137.8c-54.3,62.1-71.2,88.4-69.9,110.2
	s26.3,24.7,29.6,104.1C1739.2,1133.1,1653.7,1175.9,1653.7,1175.9z"/>
<path class="st1" d="M1686.2,1340.4c294.9-207.7,96.3-450,96.3-450c-10.7,23.4,1.6,91.7,1.6,91.7c17.3,141.1-86.8,195.4-86.8,195.4
	C1751.6,1258.1,1686.2,1340.4,1686.2,1340.4z"/>
<path class="st1" d="M1657,1356c86.8-100.8,15.6-172.3,15.6-172.3c9.5,43.6,26.3,65-71.6,172.3c-97.9,107.4-3.3,201.6-3.3,201.6
	C1568.5,1491,1569.8,1456.8,1657,1356z"/>
<path class="st1" d="M1731.4,1363.9c62.5-39.5,146.4-79,207.3-158.4c60.9-79.4,42-255.9,153.4-395.7
	C2203.6,669.9,2420,635.4,2420,635.4c-334.8,7-565.6,239.8-565.6,239.8c97.9,74.5,120.1,315.1-87.6,434.4
	c-212.2,122.2-162.9,232.8-162.9,232.8C1609.7,1462.2,1672.2,1400.9,1731.4,1363.9z"/>
<path class="st1" d="M2015.2,1033.1c18.1-43.6,50.2-80.6,90.9-104.9c68.3-39.1,125-95.4,165.4-162.9c32.1-54.3,86-106.9,86-106.9
	C2040.7,753.8,2015.2,1033.1,2015.2,1033.1z"/>
<path class="st1" d="M2120.5,950.9c-108.6,54.3-152.2,234.5-152.2,234.5c254.6-138.2,271.5-350.5,271.5-350.5
	S2229.1,896.6,2120.5,950.9z"/>
<path class="st1" d="M1965.5,1207.1c-14,18.5-35.8,63.8-158.4,124.2c-122.6,60.5-161.2,139.9-161.2,139.9
	c77.7-79,153-102.4,341.4-186.3s218.8-293.3,218.8-293.3C2099.2,1166.8,1965.5,1207.1,1965.5,1207.1z"/>
<path class="st1" d="M1556.2,1414.5c0,0-17.7,5.3-21.8,20.6c-4.1,15.2,8.2,31.7,8.2,31.7s4.9,2.5,7-25.9
	C1550.8,1418.6,1556.2,1414.5,1556.2,1414.5z"/>
</svg>
