<?xml version="1.0" encoding="UTF-8"?>
<svg id="Ebene_2" data-name="Ebene 2" xmlns="http://www.w3.org/2000/svg" viewBox="0 0 328.89 328.89">
  <g id="mail">
    <g>
      <path d="M164.45,191.22c-12.08,0-23.73-4.46-32.71-12.36l-56.61,56.9h178.65l-56.61-56.91c-8.98,7.91-20.64,12.37-32.72,12.37Z"/>
      <path d="M164.91,0h-.93C73.41,0,0,73.42,0,163.98v.94c0,90.56,73.41,163.97,163.98,163.97h.93c90.56,0,163.98-73.41,163.98-163.97v-.94C328.89,73.42,255.47,0,164.91,0ZM279.99,227.77c0,12.9-10.49,23.39-23.39,23.39H72.29c-12.9,0-23.39-10.49-23.39-23.39v-126.65c0-12.9,10.49-23.39,23.39-23.39h184.3c12.9,0,23.39,10.49,23.39,23.39v126.65Z"/>
      <path d="M164.45,175.81c9.7,0,18.65-3.95,25.18-11.12l65.22-71.55H74.05l65.21,71.55c6.53,7.17,15.48,11.12,25.18,11.12Z"/>
      <polygon points="64.31 105.32 64.31 224.78 121.13 167.67 64.31 105.32"/>
      <polygon points="264.58 224.78 264.58 105.32 207.76 167.66 264.58 224.78"/>
    </g>
  </g>
</svg>