<?xml version="1.0" encoding="UTF-8"?>
<svg id="Ebene_2" data-name="Ebene 2" xmlns="http://www.w3.org/2000/svg" viewBox="0 0 328.89 328.89">
  <g id="instagram">
    <g>
      <path d="M215.33,84.89h-101.77c-18.19,0-32.99,14.81-32.99,33v93.1c0,18.2,14.8,33,32.99,33h101.77c18.2,0,33-14.8,33-33v-93.1c0-18.19-14.8-33-33-33ZM164.45,211.87c-26.15,0-47.43-21.28-47.43-47.43s21.28-47.42,47.43-47.42,47.42,21.27,47.42,47.42-21.27,47.43-47.42,47.43ZM216.27,124.67c-7.05,0-12.78-5.73-12.78-12.78s5.73-12.78,12.78-12.78,12.78,5.74,12.78,12.78-5.73,12.78-12.78,12.78Z"/>
      <path d="M164.45,135c-16.23,0-29.44,13.21-29.44,29.44s13.21,29.44,29.44,29.44,29.44-13.21,29.44-29.44-13.21-29.44-29.44-29.44Z"/>
      <path d="M164.92,0h-.94C73.42,0,0,73.41,0,163.97v.94c0,90.56,73.42,163.98,163.98,163.98h.94c90.56,0,163.97-73.42,163.97-163.98v-.94C328.89,73.41,255.48,0,164.92,0ZM266.31,210.99c0,28.12-22.87,50.99-50.98,50.99h-101.77c-28.11,0-50.98-22.87-50.98-50.99v-93.1c0-28.11,22.87-50.98,50.98-50.98h101.77c28.11,0,50.98,22.87,50.98,50.98v93.1Z"/>
    </g>
  </g>
</svg>